<mxfile host="65bd71144e">
    <diagram id="2KhIsbDiPvBkP_OM17Oy" name="Page-1">
        <mxGraphModel dx="2131" dy="1197" grid="0" gridSize="10" guides="1" tooltips="1" connect="1" arrows="1" fold="1" page="1" pageScale="1" pageWidth="850" pageHeight="1100" background="#ffffff" math="0" shadow="0">
            <root>
                <mxCell id="0"/>
                <mxCell id="1" parent="0"/>
                <mxCell id="47" value="&lt;font style=&quot;font-size: 18px;&quot;&gt;Management Core&lt;br&gt;&lt;br&gt;&lt;br&gt;&lt;br&gt;&lt;br&gt;&lt;br&gt;&lt;br&gt;&lt;br&gt;&lt;br&gt;&lt;br&gt;&lt;br&gt;&lt;br&gt;&lt;br&gt;&lt;br&gt;&lt;br&gt;&lt;br&gt;&lt;/font&gt;" style="shape=folder;fontStyle=1;tabWidth=80;tabHeight=30;tabPosition=left;html=1;boundedLbl=1;strokeColor=#000000;fillColor=#faf5e3;fontColor=#000000;" parent="1" vertex="1">
                    <mxGeometry x="140" y="120" width="950" height="460" as="geometry"/>
                </mxCell>
                <mxCell id="61" value="" style="edgeStyle=none;html=1;fontSize=18;" edge="1" parent="1" source="48">
                    <mxGeometry relative="1" as="geometry">
                        <mxPoint x="326.1111111111111" y="150" as="targetPoint"/>
                    </mxGeometry>
                </mxCell>
                <mxCell id="48" value="&lt;font style=&quot;font-size: 16px;&quot;&gt;DoainModel&lt;br&gt;&lt;/font&gt;" style="shape=folder;fontStyle=1;spacingTop=10;tabWidth=40;tabHeight=14;tabPosition=left;html=1;fillColor=#F2DBC0;fontColor=#000000;strokeColor=#000000;" parent="1" vertex="1">
                    <mxGeometry x="890" y="390" width="140" height="70" as="geometry"/>
                </mxCell>
                <mxCell id="62" value="&lt;font style=&quot;font-size: 16px;&quot;&gt;DataModel&lt;br&gt;&lt;/font&gt;" style="shape=folder;fontStyle=1;spacingTop=10;tabWidth=40;tabHeight=14;tabPosition=left;html=1;fillColor=#F2DBC0;fontColor=#000000;strokeColor=#000000;" vertex="1" parent="1">
                    <mxGeometry x="890" y="260" width="140" height="70" as="geometry"/>
                </mxCell>
                <mxCell id="75" style="edgeStyle=none;html=1;exitX=0;exitY=0;exitDx=90;exitDy=14;exitPerimeter=0;entryX=0.646;entryY=1.038;entryDx=0;entryDy=0;entryPerimeter=0;dashed=1;strokeColor=#000000;fontSize=18;endArrow=open;endFill=0;" edge="1" parent="1" source="63" target="66">
                    <mxGeometry relative="1" as="geometry"/>
                </mxCell>
                <mxCell id="63" value="&lt;font style=&quot;font-size: 16px;&quot;&gt;DTO&lt;br&gt;&lt;/font&gt;" style="shape=folder;fontStyle=1;spacingTop=10;tabWidth=40;tabHeight=14;tabPosition=left;html=1;fillColor=#F2DBC0;fontColor=#000000;strokeColor=#000000;" vertex="1" parent="1">
                    <mxGeometry x="620" y="470" width="140" height="70" as="geometry"/>
                </mxCell>
                <mxCell id="76" style="edgeStyle=none;html=1;exitX=0;exitY=0;exitDx=140;exitDy=42;exitPerimeter=0;entryX=0;entryY=0;entryDx=0;entryDy=42;entryPerimeter=0;dashed=1;strokeColor=#000000;fontSize=18;endArrow=open;endFill=0;" edge="1" parent="1" source="64" target="63">
                    <mxGeometry relative="1" as="geometry"/>
                </mxCell>
                <mxCell id="77" style="edgeStyle=none;html=1;entryX=0.5;entryY=1;entryDx=0;entryDy=0;entryPerimeter=0;dashed=1;strokeColor=#000000;fontSize=18;endArrow=open;endFill=0;exitX=0;exitY=0;exitDx=90;exitDy=14;exitPerimeter=0;" edge="1" parent="1" source="64" target="68">
                    <mxGeometry relative="1" as="geometry"/>
                </mxCell>
                <mxCell id="64" value="&lt;font style=&quot;font-size: 16px;&quot;&gt;Service&lt;br&gt;&lt;/font&gt;" style="shape=folder;fontStyle=1;spacingTop=10;tabWidth=40;tabHeight=14;tabPosition=left;html=1;fillColor=#F2DBC0;fontColor=#000000;strokeColor=#000000;" vertex="1" parent="1">
                    <mxGeometry x="380" y="470" width="140" height="70" as="geometry"/>
                </mxCell>
                <mxCell id="78" style="edgeStyle=none;html=1;exitX=0;exitY=0;exitDx=140;exitDy=42;exitPerimeter=0;entryX=0;entryY=0;entryDx=0;entryDy=42;entryPerimeter=0;dashed=1;strokeColor=#000000;fontSize=18;endArrow=open;endFill=0;" edge="1" parent="1" source="65" target="64">
                    <mxGeometry relative="1" as="geometry"/>
                </mxCell>
                <mxCell id="65" value="&lt;font style=&quot;font-size: 16px;&quot;&gt;Controller&lt;br&gt;&lt;/font&gt;" style="shape=folder;fontStyle=1;spacingTop=10;tabWidth=40;tabHeight=14;tabPosition=left;html=1;fillColor=#F2DBC0;fontColor=#000000;strokeColor=#000000;" vertex="1" parent="1">
                    <mxGeometry x="170" y="470" width="140" height="70" as="geometry"/>
                </mxCell>
                <mxCell id="73" style="edgeStyle=none;html=1;exitX=0;exitY=0;exitDx=140;exitDy=42;exitPerimeter=0;entryX=0;entryY=0;entryDx=0;entryDy=42;entryPerimeter=0;dashed=1;strokeColor=#000000;fontSize=18;endArrow=open;endFill=0;" edge="1" parent="1" source="66" target="62">
                    <mxGeometry relative="1" as="geometry"/>
                </mxCell>
                <mxCell id="74" style="edgeStyle=none;html=1;exitX=0;exitY=0;exitDx=140;exitDy=42;exitPerimeter=0;entryX=0;entryY=0;entryDx=0;entryDy=42;entryPerimeter=0;dashed=1;strokeColor=#000000;fontSize=18;endArrow=open;endFill=0;" edge="1" parent="1" source="66" target="48">
                    <mxGeometry relative="1" as="geometry"/>
                </mxCell>
                <mxCell id="66" value="&lt;font style=&quot;font-size: 16px;&quot;&gt;Mapper&lt;br&gt;&lt;/font&gt;" style="shape=folder;fontStyle=1;spacingTop=10;tabWidth=40;tabHeight=14;tabPosition=left;html=1;fillColor=#F2DBC0;fontColor=#000000;strokeColor=#000000;" vertex="1" parent="1">
                    <mxGeometry x="620" y="330" width="140" height="70" as="geometry"/>
                </mxCell>
                <mxCell id="72" style="edgeStyle=none;html=1;exitX=0;exitY=0;exitDx=140;exitDy=42;exitPerimeter=0;entryX=0;entryY=0;entryDx=90;entryDy=14;entryPerimeter=0;dashed=1;strokeColor=#000000;fontSize=18;endArrow=open;endFill=0;" edge="1" parent="1" source="67" target="66">
                    <mxGeometry relative="1" as="geometry">
                        <Array as="points">
                            <mxPoint x="710" y="272"/>
                        </Array>
                    </mxGeometry>
                </mxCell>
                <mxCell id="67" value="&lt;font style=&quot;font-size: 16px;&quot;&gt;Repository&lt;br&gt;&lt;/font&gt;" style="shape=folder;fontStyle=1;spacingTop=10;tabWidth=40;tabHeight=14;tabPosition=left;html=1;fillColor=#F2DBC0;fontColor=#000000;strokeColor=#000000;" vertex="1" parent="1">
                    <mxGeometry x="380" y="230" width="140" height="70" as="geometry"/>
                </mxCell>
                <mxCell id="70" style="edgeStyle=none;html=1;exitX=0;exitY=0;exitDx=140;exitDy=42;exitPerimeter=0;entryX=0;entryY=0;entryDx=0;entryDy=42;entryPerimeter=0;fontSize=18;strokeColor=#000000;dashed=1;endArrow=open;endFill=0;" edge="1" parent="1" source="68" target="67">
                    <mxGeometry relative="1" as="geometry"/>
                </mxCell>
                <mxCell id="68" value="&lt;font style=&quot;font-size: 16px;&quot;&gt;IRepository&lt;br&gt;&lt;/font&gt;" style="shape=folder;fontStyle=1;spacingTop=10;tabWidth=40;tabHeight=14;tabPosition=left;html=1;fillColor=#F2DBC0;fontColor=#000000;strokeColor=#000000;" vertex="1" parent="1">
                    <mxGeometry x="180" y="230" width="140" height="70" as="geometry"/>
                </mxCell>
                <mxCell id="80" value="&lt;font style=&quot;font-size: 18px;&quot;&gt;Web SPA&lt;br&gt;&lt;br&gt;&lt;br&gt;&lt;br&gt;&lt;br&gt;&lt;br&gt;&lt;br&gt;&lt;br&gt;&lt;br&gt;&lt;br&gt;&lt;br&gt;&lt;br&gt;&lt;br&gt;&lt;br&gt;&lt;br&gt;&lt;br&gt;&lt;/font&gt;" style="shape=folder;fontStyle=1;tabWidth=80;tabHeight=30;tabPosition=left;html=1;boundedLbl=1;strokeColor=#000000;fillColor=#faf5e3;fontColor=#000000;" vertex="1" parent="1">
                    <mxGeometry x="150" y="660" width="950" height="460" as="geometry"/>
                </mxCell>
                <mxCell id="89" style="edgeStyle=none;html=1;exitX=0;exitY=0;exitDx=90;exitDy=14;exitPerimeter=0;entryX=0.75;entryY=1;entryDx=0;entryDy=0;entryPerimeter=0;dashed=1;strokeColor=#000000;fontSize=18;endArrow=open;endFill=0;" edge="1" parent="1" source="81" target="65">
                    <mxGeometry relative="1" as="geometry"/>
                </mxCell>
                <mxCell id="81" value="&lt;font style=&quot;font-size: 16px;&quot;&gt;Services&lt;br&gt;&lt;/font&gt;" style="shape=folder;fontStyle=1;spacingTop=10;tabWidth=40;tabHeight=14;tabPosition=left;html=1;fillColor=#F2DBC0;fontColor=#000000;strokeColor=#000000;" vertex="1" parent="1">
                    <mxGeometry x="190" y="790" width="140" height="70" as="geometry"/>
                </mxCell>
                <mxCell id="82" value="&lt;font style=&quot;font-size: 16px;&quot;&gt;Pages&lt;br&gt;&lt;br&gt;&lt;br&gt;&lt;br&gt;&lt;br&gt;&lt;br&gt;&lt;br&gt;&lt;br&gt;&lt;/font&gt;" style="shape=folder;fontStyle=1;spacingTop=10;tabWidth=40;tabHeight=14;tabPosition=left;html=1;fillColor=#F2DBC0;fontColor=#000000;strokeColor=#000000;" vertex="1" parent="1">
                    <mxGeometry x="500" y="790" width="550" height="250" as="geometry"/>
                </mxCell>
                <mxCell id="87" style="edgeStyle=none;html=1;exitX=0;exitY=0;exitDx=140;exitDy=42;exitPerimeter=0;entryX=0;entryY=0;entryDx=0;entryDy=42;entryPerimeter=0;dashed=1;strokeColor=#000000;fontSize=18;endArrow=open;endFill=0;" edge="1" parent="1" source="83" target="85">
                    <mxGeometry relative="1" as="geometry"/>
                </mxCell>
                <mxCell id="88" style="edgeStyle=none;html=1;exitX=0;exitY=0;exitDx=0;exitDy=42;exitPerimeter=0;entryX=0.5;entryY=1;entryDx=0;entryDy=0;entryPerimeter=0;dashed=1;strokeColor=#000000;fontSize=18;endArrow=open;endFill=0;" edge="1" parent="1" source="83" target="81">
                    <mxGeometry relative="1" as="geometry">
                        <Array as="points">
                            <mxPoint x="260" y="955"/>
                        </Array>
                    </mxGeometry>
                </mxCell>
                <mxCell id="83" value="&lt;font style=&quot;font-size: 16px;&quot;&gt;Components&lt;br&gt;&lt;/font&gt;" style="shape=folder;fontStyle=1;spacingTop=10;tabWidth=40;tabHeight=14;tabPosition=left;html=1;fillColor=#FFCCCC;fontColor=#000000;strokeColor=#000000;" vertex="1" parent="1">
                    <mxGeometry x="570" y="920" width="140" height="70" as="geometry"/>
                </mxCell>
                <mxCell id="85" value="&lt;font style=&quot;font-size: 16px;&quot;&gt;Model&lt;br&gt;&lt;/font&gt;" style="shape=folder;fontStyle=1;spacingTop=10;tabWidth=40;tabHeight=14;tabPosition=left;html=1;fillColor=#FFCCCC;fontColor=#000000;strokeColor=#000000;" vertex="1" parent="1">
                    <mxGeometry x="840" y="920" width="140" height="70" as="geometry"/>
                </mxCell>
                <mxCell id="90" value="" style="whiteSpace=wrap;html=1;labelBackgroundColor=none;labelBorderColor=default;strokeColor=none;fontColor=#000000;fillColor=none;" vertex="1" parent="1">
                    <mxGeometry x="58" y="43" width="1128" height="1136" as="geometry"/>
                </mxCell>
            </root>
        </mxGraphModel>
    </diagram>
</mxfile>